<?xml version="1.0" encoding="UTF-8" standalone="no"?>
<!-- Created with Inkscape (http://www.inkscape.org/) -->

<svg
   width="340"
   height="500"
   viewBox="0 0 89.958329 132.29167"
   version="1.1"
   id="svg1"
   xml:space="preserve"
   inkscape:version="1.3 (0e150ed6c4, 2023-07-21)"
   sodipodi:docname="svg-icon-assets.svg"
   xmlns:inkscape="http://www.inkscape.org/namespaces/inkscape"
   xmlns:sodipodi="http://sodipodi.sourceforge.net/DTD/sodipodi-0.dtd"
   xmlns="http://www.w3.org/2000/svg"
   xmlns:svg="http://www.w3.org/2000/svg"><sodipodi:namedview
     id="namedview1"
     pagecolor="#90c86c"
     bordercolor="#000000"
     borderopacity="0.25"
     inkscape:showpageshadow="2"
     inkscape:pageopacity="0.0"
     inkscape:pagecheckerboard="0"
     inkscape:deskcolor="#d1d1d1"
     inkscape:document-units="mm"
     shape-rendering="crispEdges"
     showgrid="true"
     inkscape:zoom="0.18106587"
     inkscape:cx="-466.68099"
     inkscape:cy="356.22395"
     inkscape:window-width="1920"
     inkscape:window-height="1009"
     inkscape:window-x="1912"
     inkscape:window-y="-8"
     inkscape:window-maximized="1"
     inkscape:current-layer="layer1"><inkscape:grid
       id="grid1"
       units="px"
       originx="-2060"
       originy="-629.99998"
       spacingx="0.26458332"
       spacingy="0.26458334"
       empcolor="#0099e5"
       empopacity="0.30196078"
       color="#0099e5"
       opacity="0.14901961"
       empspacing="5"
       dotted="false"
       gridanglex="30"
       gridanglez="30"
       visible="true" /></sodipodi:namedview><defs
     id="defs1" /><g
     inkscape:label="Layer 1"
     inkscape:groupmode="layer"
     id="layer1"
     transform="translate(-545.04165,-166.6875)"><g
       id="g3"
       transform="translate(523.875,166.68751)"><path
         id="rect3"
         style="stroke-width:0"
         d="M 34.395832,0 C 41.72479,0 47.624998,5.900208 47.624998,13.229166 V 119.06251 c 0,7.32895 -5.900208,13.22916 -13.229166,13.22916 -7.328958,0 -13.229166,-5.90021 -13.229166,-13.22916 V 13.229166 C 21.166666,5.900208 27.066874,0 34.395832,0 Z" /><path
         id="rect3-7"
         style="stroke-width:0"
         d="M 97.89583,-2.5431311e-6 C 105.22479,-2.5431311e-6 111.125,5.9002055 111.125,13.229163 V 119.0625 c 0,7.32896 -5.90021,13.22917 -13.22917,13.22917 -7.328958,0 -13.229166,-5.90021 -13.229166,-13.22917 V 13.229163 C 84.666664,5.9002055 90.566872,-2.5431311e-6 97.89583,-2.5431311e-6 Z" /></g></g></svg>
