<?xml version="1.0" encoding="UTF-8" standalone="no"?>
<!-- Created with Inkscape (http://www.inkscape.org/) -->

<svg
   width="500.00003"
   height="500.00006"
   viewBox="0 0 132.29167 132.29169"
   version="1.1"
   id="svg1"
   xml:space="preserve"
   inkscape:version="1.3 (0e150ed6c4, 2023-07-21)"
   sodipodi:docname="svg-icon-assets.svg"
   xmlns:inkscape="http://www.inkscape.org/namespaces/inkscape"
   xmlns:sodipodi="http://sodipodi.sourceforge.net/DTD/sodipodi-0.dtd"
   xmlns="http://www.w3.org/2000/svg"
   xmlns:svg="http://www.w3.org/2000/svg"><sodipodi:namedview
     id="namedview1"
     pagecolor="#90c86c"
     bordercolor="#000000"
     borderopacity="0.25"
     inkscape:showpageshadow="2"
     inkscape:pageopacity="0.0"
     inkscape:pagecheckerboard="0"
     inkscape:deskcolor="#d1d1d1"
     inkscape:document-units="mm"
     shape-rendering="crispEdges"
     showgrid="true"
     inkscape:zoom="0.25606581"
     inkscape:cx="-583.8343"
     inkscape:cy="857.20153"
     inkscape:window-width="1920"
     inkscape:window-height="1009"
     inkscape:window-x="-8"
     inkscape:window-y="-8"
     inkscape:window-maximized="1"
     inkscape:current-layer="layer1"><inkscape:grid
       id="grid1"
       units="px"
       originx="-41.858366"
       originy="-632.68122"
       spacingx="0.26458332"
       spacingy="0.26458334"
       empcolor="#0099e5"
       empopacity="0.30196078"
       color="#0099e5"
       opacity="0.14901961"
       empspacing="5"
       dotted="false"
       gridanglex="30"
       gridanglez="30"
       visible="true" /></sodipodi:namedview><defs
     id="defs1" /><g
     inkscape:label="Layer 1"
     inkscape:groupmode="layer"
     id="layer1"
     transform="translate(-11.075026,-167.39691)"><g
       id="g8"
       transform="matrix(0.87883729,0.87883728,-0.83375709,0.83375709,72.38377,131.418)"
       inkscape:export-filename="g8.svg"
       inkscape:export-xdpi="96"
       inkscape:export-ydpi="96"><path
         id="path6"
         style="stroke-width:0"
         d="m 44.979168,3.9687502 a 15.875,18.520834 0 0 1 15.875,-18.5208342 15.875,18.520834 0 0 1 15.875,18.5208342 h -15.875 z" /><g
         id="g7"><path
           style="fill:#000000;stroke:none;stroke-width:0;stroke-dasharray:none"
           d="M 44.979166,116.41667 60.854171,137.67758 76.729166,116.41667 60.854171,101.73985 Z"
           id="path5" /><path
           id="rect7"
           style="stroke-width:0"
           d="m 44.979169,15.874997 h 31.749998 c 0,0 10e-7,10e-7 10e-7,10e-7 V 116.41667 c 0,0 -10e-7,0 -10e-7,0 H 44.979169 c -10e-7,0 -10e-7,0 -10e-7,0 V 15.874998 c 0,0 0,-10e-7 10e-7,-10e-7 z" /></g><path
         id="rect8"
         style="stroke-width:0"
         d="m 44.979173,7.4889293 h 31.749992 c 1e-6,0 1e-6,4e-7 1e-6,1e-6 v 4.7490757 c 0,0 0,10e-7 -1e-6,10e-7 H 44.979173 c -1e-6,0 -1e-6,-10e-7 -1e-6,-10e-7 V 7.4889303 c 0,-6e-7 0,-1e-6 1e-6,-1e-6 z" /></g></g></svg>
