<?xml version="1.0" encoding="UTF-8" standalone="no"?>
<!-- Created with Inkscape (http://www.inkscape.org/) -->

<svg
   width="500"
   height="500"
   viewBox="0 0 132.29166 132.29167"
   version="1.1"
   id="svg1"
   xml:space="preserve"
   inkscape:version="1.3 (0e150ed6c4, 2023-07-21)"
   sodipodi:docname="svg-icon-assets.svg"
   inkscape:export-filename="trash.svg"
   inkscape:export-xdpi="96"
   inkscape:export-ydpi="96"
   xmlns:inkscape="http://www.inkscape.org/namespaces/inkscape"
   xmlns:sodipodi="http://sodipodi.sourceforge.net/DTD/sodipodi-0.dtd"
   xmlns="http://www.w3.org/2000/svg"
   xmlns:svg="http://www.w3.org/2000/svg"><sodipodi:namedview
     id="namedview1"
     pagecolor="#90c86c"
     bordercolor="#000000"
     borderopacity="0.25"
     inkscape:showpageshadow="2"
     inkscape:pageopacity="0.0"
     inkscape:pagecheckerboard="0"
     inkscape:deskcolor="#d1d1d1"
     inkscape:document-units="mm"
     shape-rendering="crispEdges"
     showgrid="true"
     inkscape:zoom="0.18106588"
     inkscape:cx="-1303.393"
     inkscape:cy="737.30072"
     inkscape:window-width="1920"
     inkscape:window-height="1009"
     inkscape:window-x="-8"
     inkscape:window-y="-8"
     inkscape:window-maximized="1"
     inkscape:current-layer="layer1"><inkscape:grid
       id="grid1"
       units="px"
       originx="0"
       originy="0"
       spacingx="0.26458332"
       spacingy="0.26458334"
       empcolor="#0099e5"
       empopacity="0.30196078"
       color="#0099e5"
       opacity="0.14901961"
       empspacing="5"
       dotted="false"
       gridanglex="30"
       gridanglez="30"
       visible="true" /></sodipodi:namedview><defs
     id="defs1" /><g
     inkscape:label="Layer 1"
     inkscape:groupmode="layer"
     id="layer1"><path
       id="rect5"
       style="fill:#000000;stroke-width:0.289754"
       d="m 46.766653,0.15655408 c -2.077564,0 -3.749641,1.78803002 -3.749641,4.00906002 V 9.7642343 H 15.415079 c -2.077565,0 -3.750159,2.5217097 -3.750159,5.6539197 0,3.13222 1.672594,5.65392 3.750159,5.65392 H 116.87659 c 2.07756,0 3.75016,-2.5217 3.75016,-5.65392 0,-3.13221 -1.6726,-5.6539197 -3.75016,-5.6539197 H 89.274656 V 4.1656141 c 0,-2.22103 -1.67208,-4.00906002 -3.74965,-4.00906002 z M 11.873693,28.550684 18.905822,116.30347 a 16.843678,17.241154 0 0 0 16.823262,15.8316 l 60.833492,-0.13384 A 16.919233,17.318492 0 0 0 113.38843,116.1009 l 7.02954,-87.550216 z m 54.469543,10.03763 c 4.137032,0 7.46828,3.03261 7.46828,6.80011 V 113.3946 c 0,3.76748 -3.331248,6.8001 -7.46828,6.8001 -4.137031,0 -7.467244,-3.03262 -7.467244,-6.8001 V 45.388424 c 0,-3.7675 3.330213,-6.80011 7.467244,-6.80011 z m 29.42146,0.27337 c 0.25266,-6e-4 0.50826,0.01 0.76584,0.0331 4.121294,0.36908 7.180844,3.68773 6.860054,7.44089 l -5.790344,67.746256 c -0.3208,3.75317 -3.89683,6.47775 -8.01812,6.10867 -4.12129,-0.36908 -7.18083,-3.68773 -6.86005,-7.44089 l 5.79035,-67.746246 c 0.30074,-3.51859 3.46237,-6.1328 7.25227,-6.14175 z m -59.504895,0.25115 c 3.789893,0.009 6.951531,2.62316 7.252271,6.14174 l 5.790861,67.747286 c 0.320791,3.75317 -2.73876,7.0713 -6.860047,7.44037 -4.121281,0.36908 -7.697846,-2.35501 -8.018632,-6.10815 L 28.63391,46.586794 c -0.320787,-3.75315 2.738764,-7.07181 6.860047,-7.44089 0.257581,-0.0231 0.513187,-0.0337 0.765844,-0.0331 z" /></g></svg>
